<svg width="185" height="183" viewBox="0 0 185 183" fill="none" xmlns="http://www.w3.org/2000/svg">
<path d="M146.813 123.629C146.813 123.629 133.136 131.617 129.03 152.099C129.03 152.099 146.17 141.935 146.813 123.629Z" fill="black"/>
<path d="M123.965 93.1026C123.965 93.1026 120.876 91.7436 122.822 83.7675C124.767 75.7914 128.901 71.0076 130.765 72.7024C132.626 74.3971 157.176 85.704 157.176 85.704L180.518 87.6264C184.187 94.3514 182.651 98.215 182.651 98.215L123.967 93.1002L123.965 93.1026Z" fill="white" stroke="#231F20" stroke-miterlimit="10"/>
<path d="M149.283 96.2456C153.364 97.3629 175.328 109.595 175.328 109.595C175.328 109.595 183.48 106.696 184.011 98.6938L129.251 79.5259C129.251 79.5259 128.303 89.8938 123.962 93.1002C123.962 93.1002 145.198 95.1283 149.283 96.2432V96.2456Z" fill="white" stroke="#231F20" stroke-miterlimit="10"/>
<path d="M131.02 72.8995C131.02 72.8995 131.593 75.005 130.847 80.0845" stroke="#231F20" stroke-miterlimit="10"/>
<path d="M149.224 96.5179C149.224 96.5179 153.127 91.0675 153.268 83.8918L158.831 85.8401C158.831 85.8401 158.965 92.9735 154.252 98.9121L149.224 96.5179Z" fill="#00956F" stroke="black" stroke-miterlimit="10"/>
<path d="M126.547 89.5723C126.547 89.5723 123.676 90.0652 123.77 86.0091C123.899 80.4789 126.774 76.6317 126.774 76.6317C126.774 76.6317 127.476 78.4978 130.957 79.2677" stroke="#231F20" stroke-miterlimit="10"/>
<path d="M144.137 124.972L146.82 126.976C146.82 126.976 147.918 109.879 147.616 108.968C147.311 108.057 141.043 100.067 141.043 100.067C141.043 100.067 135.98 94.0133 136.405 93.2481C136.83 92.4829 138.68 87.4057 141.602 86.2461C141.602 86.2461 144.214 84.4223 144.409 86.2461C144.602 88.07 143.909 92.6941 144.071 93.1025C144.233 93.511 144.672 94.187 146.336 94.2199C148.001 94.2527 154.712 93.687 155.953 97.3277C157.195 100.968 157.209 100.088 157.209 100.088L162.223 103.163C162.223 103.163 166.617 114.146 168.286 120.047C169.957 125.948 173.215 138.527 173.112 147.569C173.009 156.611 169.718 162.873 164.164 164.62C157.845 166.605 148.836 162.657 142.867 158.902C136.898 155.146 129.544 149.555 129.544 149.555C129.544 149.555 130.692 136.483 144.137 124.972Z" fill="white"/>
<path d="M161.967 102.346C161.967 102.346 187.856 163.333 161.127 165.199C143.931 166.399 114.224 134.882 113.879 136.525C113.879 136.525 100.309 118.362 109.719 107.851C119.13 97.3394 146.823 126.979 146.823 126.979" stroke="black" stroke-miterlimit="10"/>
<path d="M92.2974 100.823C92.2974 100.823 109.721 97.999 128.753 109.806C147.775 121.608 146.813 123.629 146.813 123.629C146.813 123.629 131.873 131.328 129.03 152.099L106.076 139.1C106.076 139.1 85.5912 118.087 92.2974 100.823Z" fill="#E6E7E8"/>
<path d="M146.813 123.629C146.813 123.629 132.699 131.307 129.03 152.099" stroke="black" stroke-miterlimit="10"/>
<path d="M148.944 75.9114L146.545 86.7567C146.428 87.287 146.763 87.8121 147.293 87.9293L150.183 88.5685C150.714 88.6858 151.239 88.3509 151.356 87.8205L153.754 76.9752C153.872 76.4449 153.537 75.9199 153.007 75.8026L150.116 75.1634C149.586 75.0461 149.061 75.381 148.944 75.9114Z" fill="white" stroke="black" stroke-miterlimit="10"/>
<path d="M153.531 79.4256L151.412 89.0104C151.294 89.5408 151.629 90.0658 152.16 90.1831L155.05 90.8222C155.58 90.9395 156.105 90.6046 156.222 90.0743L158.342 80.4895C158.459 79.9591 158.124 79.4341 157.594 79.3168L154.704 78.6777C154.174 78.5604 153.649 78.8953 153.531 79.4256Z" fill="white" stroke="black" stroke-miterlimit="10"/>
<path d="M158.34 80.4893L156.22 90.0741C156.103 90.6044 156.438 91.1294 156.968 91.2467L159.858 91.8859C160.389 92.0032 160.914 91.6683 161.031 91.1379L163.151 81.5532C163.268 81.0228 162.933 80.4978 162.403 80.3805L159.512 79.7414C158.982 79.6241 158.457 79.9589 158.34 80.4893Z" fill="white" stroke="black" stroke-miterlimit="10"/>
<path d="M163.457 80.156L161.338 89.7407C161.221 90.2711 161.555 90.7961 162.086 90.9134L164.976 91.5526C165.506 91.6698 166.031 91.335 166.149 90.8046L168.268 81.2198C168.385 80.6895 168.051 80.1645 167.52 80.0472L164.63 79.4081C164.1 79.2908 163.575 79.6256 163.457 80.156Z" fill="white" stroke="black" stroke-miterlimit="10"/>
<path d="M155.731 105.827C157.482 102.985 158.209 99.2478 154.881 95.7949C151.552 92.3444 143.626 95.6987 144.065 92.389C144.501 89.077 145.377 84.9974 143.189 85.2885C141.001 85.5795 135.605 91.3585 136.919 94.1283C137.884 96.1634 143.438 102.837 146.32 106.24C147.424 107.543 147.956 109.226 147.799 110.928C146.909 120.617 144.374 153.637 150.916 155.378" stroke="black" stroke-miterlimit="10"/>
<path d="M110.691 65.853C107.548 63.0808 105.767 54.7128 105.767 54.7128C102.668 59.4238 98.3821 57.4051 98.3821 57.4051C98.3821 57.4051 79.1438 73.2892 78.1392 75.9017C77.6368 77.2068 75.3295 81.2723 74.0385 85.9715C72.7498 81.2723 70.4401 77.2068 69.9378 75.9017C68.9331 73.2892 49.345 57.3535 49.345 57.3535C49.345 57.3535 46.2865 59.6514 42.5684 55.0531C42.5684 55.0531 40.5263 63.0832 37.3833 65.8553C34.2403 68.6275 24.2737 80.5258 34.4468 86.7532C34.4468 86.7532 31.8108 96.1587 36.2777 99.858C40.362 103.24 49.6431 103.832 53.2603 97.0014C53.2603 97.0014 64.8371 107.538 72.0104 99.858C72.9188 98.8839 73.5784 97.8135 74.0385 96.6821C74.4985 97.8135 75.1581 98.8839 76.0665 99.858C83.2398 107.538 94.8166 97.0014 94.8166 97.0014C98.4338 103.834 107.478 102.933 111.799 99.858C116.01 96.8629 113.63 86.7532 113.63 86.7532C123.801 80.5235 113.834 68.6251 110.694 65.8553L110.691 65.853Z" fill="black"/>
<path d="M100.543 43.6312C96.4474 44.5537 95.6869 49.4502 95.6799 49.4877C95.3771 48.8633 95.0555 48.253 94.7081 47.6615C94.7081 47.6615 86.671 34.2656 81.0446 34.3994C75.4181 34.5332 60.8157 30.6484 54.3841 44.7157L50.7412 53.8184C50.7412 53.8184 50.6003 54.194 50.3867 54.8606L52.288 48.3094C52.288 48.3094 50.3585 43.0984 46.7625 43.4552C46.7625 43.4552 40.3896 44.6242 40.2206 49.4948C40.0516 54.363 44.3565 59.4472 49.5886 57.6093C47.6897 64.8953 45.8776 78.6903 57.2596 86.2321C57.2596 86.2321 63.5198 89.2695 65.8553 89.6802L64.4399 99.5435C64.4399 99.5435 70.6156 107.717 77.9743 105.421C77.9743 105.421 83.4717 104.116 86.2086 98.4638L84.7791 89.0112C84.7791 89.0112 100.576 84.2369 99.9872 68.5617C99.9872 68.5617 99.8533 63.4399 98.452 57.5389C105.109 59.2101 107.973 52.8537 107.923 50.0487C107.876 47.2437 104.656 42.704 100.543 43.6312Z" fill="white"/>
<path d="M65.8554 89.6802L64.4424 100.823" stroke="black" stroke-miterlimit="10"/>
<path d="M84.7817 89.0112L86.6408 100.222" stroke="black" stroke-miterlimit="10"/>
<path d="M86.2114 98.4637L91.7533 99.4848C110.487 102.935 124.085 119.265 124.085 138.314V181.264H28.8086V138.839C28.8086 118.524 40.2234 100.09 64.4427 99.5459C64.4427 99.5459 76.4983 114.059 86.2114 98.4661V98.4637Z" fill="#E6E7E8"/>
<path d="M63.0503 165.559L76.174 115.967L119.115 118.981C119.115 118.981 100.63 156.05 100.628 161.059V166.066L63.0503 165.559Z" fill="#43305E"/>
<path d="M63.1584 125.493H95.2247L87.8566 168.713H60.5952C60.5952 168.713 63.5152 128.117 63.1584 125.493Z" fill="#00956F"/>
<path d="M19.755 152.998L16.666 151.285C16.666 151.285 19.4874 149.01 29.6019 148.811C29.6019 148.811 40.4534 148.458 46.7629 151.289L42.4885 153C42.4885 153 26.3838 154.712 19.7527 153L19.755 152.998Z" fill="black"/>
<path d="M87.1547 30.4911H60.9215C60.9215 30.4911 41.77 63.447 50.2577 78.7184C55.9922 89.0371 67.299 90.5463 74.0381 90.4431C80.7748 90.5463 92.084 89.0371 97.8184 78.7184C106.306 63.447 87.1547 30.4911 87.1547 30.4911Z" stroke="black" stroke-miterlimit="10"/>
<path d="M95.6802 48.9079C95.6802 48.9079 97.666 40.4694 104.565 44.556C113.151 49.6402 103.13 60.9096 98.3631 57.4778" stroke="black" stroke-miterlimit="10"/>
<path d="M104.565 48.375C104.565 48.375 100.21 45.4948 98.2012 51.3232" stroke="black" stroke-miterlimit="10"/>
<path d="M52.4643 48.9079C52.4643 48.9079 50.4785 40.4694 43.5798 44.556C34.9934 49.6402 45.014 60.9096 49.7813 57.4778" stroke="black" stroke-miterlimit="10"/>
<path d="M43.5801 48.375C43.5801 48.375 47.9343 45.4948 49.9436 51.3232" stroke="black" stroke-miterlimit="10"/>
<path d="M42.7346 150.123L41.5305 163.674L80.6761 164.023C80.6761 164.023 86.1688 157.195 89.9878 156.643C89.9878 156.643 99.4333 152.958 100.771 157.392C101.63 160.232 100.447 160.54 98.4263 160.796C96.4053 161.052 91.4267 161.566 91.2976 163.279C91.2013 164.559 91.0629 165.422 92.2975 165.753C93.5299 166.084 96.255 165.943 97.8066 165.676C99.3605 165.408 107.132 163.793 107.132 163.793C107.132 163.793 112.376 163.298 112.287 165.15C112.198 167.002 110.94 168.361 110.94 168.361C110.94 168.361 115.864 168.284 115.768 170.992C115.768 170.992 115.895 173.804 111.005 174.02C111.005 174.02 111.315 174.419 111.414 175.37C111.512 176.321 111.057 178.013 109.632 177.872C108.207 177.729 106.196 178.199 106.196 178.199C106.196 178.199 108.578 179.288 108.637 179.931C108.698 180.574 108.172 181.398 107.247 181.539C106.323 181.677 89.9526 181.539 89.9526 181.539H23.548C23.548 181.539 18.9003 181.363 18.1562 171.605L20.0881 150.674C20.0881 150.674 25.86 146.837 42.7346 150.123Z" fill="white"/>
<path d="M110.381 168.436C110.381 168.436 114.806 168.427 115.456 169.441C116.4 170.91 115.336 173.126 113.665 173.527C111.994 173.929 94.3774 174.264 94.3774 174.264" stroke="black" stroke-miterlimit="10"/>
<path d="M110.848 173.765C110.848 173.765 112.395 175.936 110.921 177.41C109.447 178.884 93.9971 177.828 93.9971 177.828" stroke="black" stroke-miterlimit="10"/>
<path d="M106.196 178.203C106.196 178.203 109.848 179.21 108.44 180.828C107.034 182.445 84.7231 181.264 84.7231 181.264C84.7231 181.264 31.5853 181.919 23.5811 181.264C16.6073 180.694 18.349 165.913 18.349 165.913C18.349 165.913 19.1518 152.425 23.5811 130.657C23.5811 130.657 35.6297 118.934 44.4719 130.657L41.566 163.397L80.7116 163.746C80.7116 163.746 86.5047 156.749 92.6358 155.575C94.861 155.148 99.6026 154.773 100.807 157.115C101.459 158.383 101.342 161.47 96.1403 161.333C92.7414 161.244 91.765 162.392 91.3354 163.005C90.6265 164.016 91.2627 165.664 92.3002 165.758C99.5157 166.413 112.459 160.509 112.463 165.69C112.468 171.69 92.3002 170.044 92.3002 170.044" stroke="black" stroke-miterlimit="10"/>
<path d="M52.462 102.661L46.7628 151.015C30.1651 145.792 16.5415 151.015 16.5415 151.015L18.1588 139.86C22.4731 105.454 52.4643 102.661 52.4643 102.661H52.462Z" fill="#E6E7E8"/>
<path d="M46.7628 151.017C46.7628 151.017 31.6134 145.74 16.5415 151.017" stroke="black" stroke-miterlimit="10"/>
<path d="M46.7629 163.211C46.7629 163.211 44.141 143.931 40.221 137.077C36.301 130.222 28.8062 119.507 28.8062 119.507L79.5708 114.683C79.5708 114.683 83.0495 137.912 82.9204 149.613C82.7913 161.312 80.7093 163.516 80.7093 163.516L46.7605 163.211H46.7629Z" fill="#2A2173"/>
<path d="M44.2676 128.117C44.4037 128.88 44.6596 129.617 45.0375 130.295C45.3145 130.793 45.69 131.34 46.2862 131.462C47.3848 131.687 47.9669 130.392 48.1359 129.525C48.3049 128.659 48.3824 126.781 49.6945 126.889C50.2884 126.939 50.6663 127.509 50.9057 127.993C51.1639 128.514 51.2766 129.086 51.5254 129.61C51.9526 130.514 52.9525 131.509 53.9548 130.692C54.4806 130.262 54.7412 129.549 55.0322 128.962C55.2106 128.605 55.3867 128.246 55.565 127.889C55.666 127.685 55.7693 127.481 55.8702 127.277C55.9617 127.091 56.0674 126.69 56.3561 126.746C56.5063 126.777 56.7011 126.955 56.8232 127.042C57.0133 127.178 57.2011 127.317 57.3842 127.462C57.687 127.702 57.9804 127.955 58.2621 128.218C58.5438 128.481 58.7949 128.755 59.0602 129.023C59.2761 129.241 59.5296 129.441 59.8512 129.455C60.4263 129.483 60.8699 128.964 61.0906 128.49C61.2173 128.218 61.2877 127.925 61.3863 127.641C61.438 127.493 61.4919 127.345 61.5647 127.204C61.6281 127.084 61.7501 126.831 61.891 126.781C62.1163 126.704 62.4355 127.072 62.5482 127.218C62.7102 127.427 62.8369 127.662 62.9778 127.885C63.2641 128.335 63.6186 128.788 64.1843 128.866C64.8016 128.953 65.4213 128.601 65.7828 128.117C66.264 127.472 66.3367 126.622 66.4025 125.847L66.1818 125.974C67.2193 126.751 68.2568 127.528 69.292 128.305C69.3577 128.354 69.4516 128.312 69.4938 128.253C70.0666 127.408 70.6393 126.561 71.212 125.716L70.982 125.746C71.9139 126.556 73.4443 126.45 74.233 125.488C74.3527 125.343 74.1461 125.134 74.0264 125.282C73.3434 126.112 72.0101 126.251 71.1909 125.54C71.1158 125.474 71.0149 125.488 70.9609 125.57C70.3881 126.415 69.8154 127.263 69.2427 128.108L69.4445 128.056C68.407 127.279 67.3695 126.502 66.3344 125.725C66.2358 125.652 66.1208 125.753 66.1137 125.852C66.0527 126.577 65.9917 127.399 65.5199 127.99C65.1326 128.476 64.3885 128.805 63.8204 128.42C63.1092 127.939 62.9801 126.751 62.0764 126.514C61.844 126.453 61.7337 126.509 61.5694 126.69C61.3816 126.894 61.2619 127.145 61.1633 127.401C60.9356 127.997 60.8277 128.793 60.1775 129.096C59.7784 129.281 59.4709 129.025 59.2057 128.748C58.9404 128.471 58.6775 128.197 58.3959 127.939C57.8748 127.46 57.3138 126.99 56.7176 126.608C56.5274 126.486 56.2974 126.371 56.0721 126.476C55.7998 126.603 55.6942 126.983 55.5721 127.23C55.2177 127.946 54.8609 128.662 54.5064 129.375C54.2341 129.922 53.882 130.68 53.1732 130.701C52.5746 130.718 52.1521 130.152 51.8939 129.68C51.3916 128.755 51.3235 127.554 50.4245 126.875C50.0677 126.605 49.6077 126.514 49.1804 126.666C48.7532 126.819 48.4551 127.211 48.2744 127.624C47.8143 128.676 48.0631 130.129 47.1289 130.948C46.4975 131.502 45.8121 130.981 45.4483 130.396C44.9976 129.678 44.7089 128.868 44.5586 128.035C44.5258 127.849 44.2418 127.927 44.2746 128.112L44.2676 128.117Z" fill="white"/>
<path d="M45.9692 135.213C46.1054 135.976 46.3612 136.713 46.7391 137.391C47.0161 137.889 47.3917 138.436 47.9879 138.558C49.0864 138.783 49.6686 137.487 49.8376 136.621C50.0066 135.755 50.084 133.877 51.3962 133.985C51.99 134.035 52.3679 134.605 52.6074 135.088C52.8656 135.61 52.9782 136.182 53.227 136.706C53.6542 137.609 54.6542 138.605 55.6565 137.788C56.1823 137.358 56.4428 136.645 56.7339 136.058C56.9123 135.701 57.0883 135.342 57.2667 134.985C57.3676 134.781 57.4709 134.577 57.5719 134.373C57.6634 134.187 57.769 133.786 58.0577 133.842C58.208 133.873 58.4028 134.051 58.5249 134.138C58.715 134.274 58.9028 134.412 59.0859 134.558C59.3887 134.797 59.6821 135.051 59.9637 135.314C60.2454 135.577 60.4966 135.851 60.7618 136.119C60.9778 136.337 61.2313 136.537 61.5529 136.551C62.1279 136.579 62.5716 136.06 62.7922 135.586C62.919 135.314 62.9894 135.02 63.088 134.736C63.1396 134.588 63.1936 134.441 63.2664 134.3C63.3297 134.18 63.4518 133.927 63.5926 133.877C63.818 133.8 64.1372 134.168 64.2499 134.314C64.4118 134.523 64.5386 134.757 64.6794 134.98C64.9658 135.431 65.3202 135.884 65.8859 135.962C66.5033 136.048 67.1229 135.696 67.4844 135.213C67.9656 134.567 68.0384 133.718 68.1041 132.943L67.8835 133.07C68.921 133.847 69.9585 134.624 70.9936 135.401C71.0593 135.45 71.1532 135.408 71.1955 135.349C71.7682 134.504 72.341 133.657 72.9137 132.812L72.6837 132.842C73.6155 133.652 75.146 133.546 75.9346 132.584C76.0544 132.438 75.8478 132.229 75.7281 132.377C75.045 133.208 73.7118 133.347 72.8926 132.636C72.8175 132.57 72.7165 132.584 72.6625 132.666C72.0898 133.511 71.5171 134.358 70.9443 135.203L71.1462 135.152C70.1087 134.375 69.0712 133.598 68.036 132.821C67.9375 132.748 67.8224 132.849 67.8154 132.948C67.7544 133.673 67.6933 134.495 67.2215 135.086C66.8342 135.572 66.0901 135.901 65.5221 135.516C64.8109 135.034 64.6818 133.847 63.7781 133.61C63.5457 133.549 63.4354 133.605 63.2711 133.786C63.0833 133.99 62.9636 134.241 62.865 134.497C62.6373 135.093 62.5293 135.889 61.8791 136.192C61.4801 136.377 61.1726 136.121 60.9073 135.844C60.6421 135.567 60.3792 135.293 60.0975 135.034C59.5764 134.556 59.0154 134.086 58.4192 133.704C58.2291 133.582 57.9991 133.466 57.7737 133.572C57.5014 133.699 57.3958 134.079 57.2738 134.326C56.9193 135.041 56.5625 135.757 56.2081 136.471C55.9358 137.018 55.5837 137.776 54.8748 137.797C54.2763 137.814 53.8538 137.248 53.5956 136.776C53.0932 135.851 53.0252 134.649 52.1262 133.971C51.7694 133.701 51.3093 133.61 50.8821 133.762C50.4549 133.915 50.1568 134.307 49.9761 134.72C49.516 135.771 49.7648 137.224 48.8306 138.044C48.1992 138.598 47.5137 138.077 47.1499 137.492C46.6992 136.774 46.4105 135.964 46.2603 135.131C46.2274 134.945 45.9434 135.023 45.9763 135.208L45.9692 135.213Z" fill="white"/>
<path d="M48.0493 143.75C48.1855 144.513 48.4413 145.25 48.8192 145.928C49.0962 146.426 49.4718 146.973 50.068 147.095C51.1665 147.32 51.7486 146.024 51.9176 145.158C52.0866 144.292 52.1641 142.414 53.4762 142.522C54.0701 142.572 54.448 143.142 54.6874 143.625C54.9456 144.147 55.0583 144.719 55.3071 145.243C55.7343 146.146 56.7343 147.142 57.7365 146.325C58.2623 145.895 58.5229 145.182 58.814 144.595C58.9923 144.238 59.1684 143.879 59.3468 143.522C59.4477 143.318 59.551 143.114 59.6519 142.91C59.7435 142.724 59.8491 142.323 60.1378 142.379C60.288 142.41 60.4829 142.588 60.6049 142.675C60.7951 142.811 60.9828 142.949 61.1659 143.095C61.4687 143.334 61.7621 143.588 62.0438 143.851C62.3255 144.114 62.5766 144.388 62.8419 144.656C63.0578 144.874 63.3113 145.074 63.6329 145.088C64.208 145.116 64.6516 144.597 64.8723 144.123C64.999 143.851 65.0695 143.557 65.168 143.273C65.2197 143.125 65.2737 142.978 65.3464 142.837C65.4098 142.717 65.5319 142.464 65.6727 142.414C65.898 142.337 66.2173 142.705 66.33 142.851C66.4919 143.06 66.6187 143.294 66.7595 143.517C67.0459 143.968 67.4003 144.421 67.966 144.499C68.5833 144.586 69.203 144.233 69.5645 143.75C70.0457 143.104 70.1185 142.255 70.1842 141.48L69.9635 141.607C71.001 142.384 72.0385 143.161 73.0737 143.938C73.1394 143.987 73.2333 143.945 73.2756 143.886C73.8483 143.041 74.421 142.194 74.9938 141.349L74.7637 141.379C75.6956 142.189 77.226 142.083 78.0147 141.121C78.1344 140.975 77.9279 140.766 77.8082 140.914C77.1251 141.745 75.7919 141.884 74.9726 141.173C74.8975 141.107 74.7966 141.121 74.7426 141.203C74.1699 142.048 73.5971 142.895 73.0244 143.741L73.2263 143.689C72.1888 142.912 71.1513 142.135 70.1161 141.358C70.0175 141.285 69.9025 141.386 69.8955 141.485C69.8344 142.21 69.7734 143.032 69.3016 143.623C68.9143 144.109 68.1702 144.438 67.6022 144.053C66.8909 143.571 66.7619 142.384 65.8581 142.147C65.6258 142.086 65.5154 142.142 65.3511 142.323C65.1634 142.527 65.0436 142.778 64.9451 143.034C64.7174 143.63 64.6094 144.426 63.9592 144.729C63.5602 144.914 63.2527 144.658 62.9874 144.381C62.7222 144.104 62.4593 143.83 62.1776 143.571C61.6565 143.093 61.0955 142.623 60.4993 142.241C60.3092 142.119 60.0791 142.003 59.8538 142.109C59.5815 142.236 59.4759 142.616 59.3538 142.863C58.9994 143.578 58.6426 144.294 58.2882 145.008C58.0159 145.555 57.6638 146.313 56.9549 146.334C56.3563 146.351 55.9338 145.785 55.6756 145.313C55.1733 144.388 55.1053 143.187 54.2062 142.508C53.8495 142.238 53.3894 142.147 52.9622 142.299C52.535 142.452 52.2369 142.844 52.0561 143.257C51.5961 144.309 51.8449 145.761 50.9107 146.581C50.2792 147.135 49.5938 146.614 49.23 146.029C48.7793 145.311 48.4906 144.501 48.3404 143.668C48.3075 143.482 48.0235 143.56 48.0564 143.745L48.0493 143.75Z" fill="white"/>
<path d="M85.7111 27.2331C80.6879 25.4961 74.3761 24.5431 70.1462 26.0031C70.1298 26.0031 70.1204 26.0078 70.1204 26.0078C70.1204 26.0078 52.0252 23.0385 46.765 38.4859L44.4106 44.1147C44.4106 44.1147 50.2108 40.6408 52.4665 48.9079C52.4665 48.9079 62.3486 45.0537 68.0595 39.9061C71.9278 43.9575 83.9811 54.8301 96.0955 47.6615C96.0955 47.6615 97.7972 42.981 101.384 43.4387C104.567 43.8448 95.7786 30.7118 85.7111 27.2331Z" fill="black"/>
<path d="M64.0759 59.635C64.9134 59.635 65.5923 58.9561 65.5923 58.1187C65.5923 57.2812 64.9134 56.6023 64.0759 56.6023C63.2385 56.6023 62.5596 57.2812 62.5596 58.1187C62.5596 58.9561 63.2385 59.635 64.0759 59.635Z" fill="#231F20"/>
<path d="M85.7112 60.527C86.5486 60.527 87.2275 59.8481 87.2275 59.0106C87.2275 58.1731 86.5486 57.4943 85.7112 57.4943C84.8737 57.4943 84.1948 58.1731 84.1948 59.0106C84.1948 59.8481 84.8737 60.527 85.7112 60.527Z" fill="#231F20"/>
<path d="M73.2258 58.5505L72.0991 71.0898H77.35" stroke="#231F20" stroke-miterlimit="10"/>
<path d="M66.4117 54.7128C66.4117 54.7128 62.8015 51.95 59.959 55.4498" stroke="#231F20" stroke-miterlimit="10"/>
<path d="M88.9361 54.863C88.9361 54.863 85.326 52.1002 82.4834 55.6" stroke="#231F20" stroke-miterlimit="10"/>
<path d="M83.6055 77.2138C78.8147 83.9951 72.0991 79.4015 72.0991 79.4015L83.6055 77.2138Z" fill="black"/>
<path d="M46.7627 38.486H99.8324L98.7738 23.8553L118.092 16.4872L76.2962 -6.10352e-05L34.5005 16.4872L49.9433 22.7005L46.7627 38.486Z" fill="#00956F"/>
<path d="M49.9434 22.7005L74.726 31.5709L98.7739 23.8553" stroke="black" stroke-miterlimit="10"/>
<path d="M68.6721 11.4454C68.6721 11.4454 24.2873 8.0136 22.7921 33.0145C21.2993 58.0154 17.9239 68.3177 11.2153 70.9419" stroke="black" stroke-miterlimit="10"/>
<path d="M0 76.0871C0 76.0871 10.5933 67.4843 12.8678 70.3597C15.7503 74.0004 7.87748 84.8448 7.87748 84.8448C7.87748 84.8448 0.969426 80.899 0.00234599 76.0871H0Z" fill="#2A2173"/>
<path d="M21.7827 181.68H150.165" stroke="black" stroke-miterlimit="10"/>
</svg>
